<?xml version="1.0" encoding="UTF-8" standalone="no"?><!DOCTYPE svg PUBLIC "-//W3C//DTD SVG 1.1//EN" "http://www.w3.org/Graphics/SVG/1.1/DTD/svg11.dtd"><svg width="100%" height="100%" viewBox="0 0 8892 8892" version="1.1" xmlns="http://www.w3.org/2000/svg" xmlns:xlink="http://www.w3.org/1999/xlink" xml:space="preserve" xmlns:serif="http://www.serif.com/" style="fill-rule:evenodd;clip-rule:evenodd;stroke-linejoin:round;stroke-miterlimit:2;"><path d="M4444.46,8518.5c2234.97,0 4074.07,-1839.1 4074.07,-4074.07c0,-2234.97 -1839.1,-4074.08 -4074.07,-4074.08c-2234.97,0 -4074.08,1839.1 -4074.08,4074.08c2.634,2233.97 1840.1,4071.44 4074.08,4074.07Zm0,-7407.42c1828.61,0 3333.33,1504.72 3333.33,3333.33c-0,1828.61 -1504.72,3333.33 -3333.33,3333.33c-1828.61,0 -3333.33,-1504.72 -3333.33,-3333.33c2.025,-1827.85 1505.49,-3331.31 3333.33,-3333.33Z" style="fill:#015bab;fill-rule:nonzero;"/><path d="M3071.48,5817.42c143.659,143.616 380.042,143.616 523.7,-0l849.263,-849.259l849.258,849.259c69.025,66.666 161.334,103.966 257.3,103.966c203.179,0 370.371,-167.191 370.371,-370.37c0,-95.967 -37.3,-188.275 -103.967,-257.3l-849.258,-849.259l849.258,-849.262c66.667,-69.025 103.967,-161.334 103.967,-257.3c0,-203.179 -167.192,-370.371 -370.371,-370.371c-95.966,-0 -188.275,37.3 -257.3,103.971l-849.258,849.258l-849.263,-849.258c-69.025,-66.671 -161.333,-103.971 -257.3,-103.971c-203.179,-0 -370.37,167.192 -370.37,370.371c-0,95.966 37.3,188.275 103.97,257.3l849.259,849.262l-849.259,849.259c-143.621,143.662 -143.621,380.041 0,523.704Z" style="fill:#015bab;fill-rule:nonzero;"/></svg>