<?xml version="1.0" encoding="UTF-8" standalone="no"?><!DOCTYPE svg PUBLIC "-//W3C//DTD SVG 1.1//EN" "http://www.w3.org/Graphics/SVG/1.1/DTD/svg11.dtd"><svg width="100%" height="100%" viewBox="0 0 2134 2134" version="1.1" xmlns="http://www.w3.org/2000/svg" xmlns:xlink="http://www.w3.org/1999/xlink" xml:space="preserve" xmlns:serif="http://www.serif.com/" style="fill-rule:evenodd;clip-rule:evenodd;stroke-linejoin:round;stroke-miterlimit:2;"><path d="M1066.67,2044.44c536.393,0 977.777,-441.384 977.777,-977.777c0,-536.393 -441.384,-977.778 -977.777,-977.778c-536.393,-0 -977.778,441.385 -977.778,977.778c0.632,536.153 441.624,977.145 977.778,977.777Zm-0,-1777.78c438.867,-0 800,361.133 800,800c-0,438.867 -361.133,800 -800,800c-438.867,-0 -800,-361.133 -800,-800c0.486,-438.683 361.317,-799.514 800,-800Z" style="fill:#6332ac;fill-rule:nonzero;"/><path d="M737.156,1396.18c34.478,34.468 91.21,34.468 125.688,-0l203.823,-203.822l203.822,203.822c16.566,16 38.72,24.952 61.752,24.952c48.763,-0 88.889,-40.126 88.889,-88.889c-0,-23.032 -8.952,-45.186 -24.952,-61.752l-203.822,-203.822l203.822,-203.823c16,-16.566 24.952,-38.72 24.952,-61.752c-0,-48.763 -40.126,-88.889 -88.889,-88.889c-23.032,0 -45.186,8.952 -61.752,24.953l-203.822,203.822l-203.823,-203.822c-16.566,-16.001 -38.72,-24.953 -61.752,-24.953c-48.763,0 -88.889,40.126 -88.889,88.889c0,23.032 8.952,45.186 24.953,61.752l203.822,203.823l-203.822,203.822c-34.469,34.479 -34.469,91.21 -0,125.689Z" style="fill:#7945c6;fill-rule:nonzero;"/></svg>