<?xml version="1.0" encoding="UTF-8" standalone="no"?><!DOCTYPE svg PUBLIC "-//W3C//DTD SVG 1.1//EN" "http://www.w3.org/Graphics/SVG/1.1/DTD/svg11.dtd"><svg width="100%" height="100%" viewBox="0 0 2134 2134" version="1.1" xmlns="http://www.w3.org/2000/svg" xmlns:xlink="http://www.w3.org/1999/xlink" xml:space="preserve" xmlns:serif="http://www.serif.com/" style="fill-rule:evenodd;clip-rule:evenodd;stroke-linejoin:round;stroke-miterlimit:2;"><path d="M1955.56,1422.22c-48.763,0 -88.889,40.126 -88.889,88.889l-0,355.556l-1600,-0l-0,-355.556c-0,-48.763 -40.126,-88.889 -88.889,-88.889c-48.763,0 -88.889,40.126 -88.889,88.889l-0,444.445c-0,48.763 40.126,88.888 88.889,88.888l1777.78,0c48.763,0 88.888,-40.125 88.888,-88.888l0,-444.445c0,-48.763 -40.125,-88.889 -88.888,-88.889Z" style="fill:#7945c6;fill-rule:nonzero;"/><path d="M1003.82,1573.96c34.479,34.468 91.21,34.468 125.689,-0l533.333,-533.334c16.001,-16.566 24.953,-38.72 24.953,-61.752c-0,-48.763 -40.126,-88.889 -88.889,-88.889c-23.032,0 -45.186,8.952 -61.752,24.952l-381.6,381.6l-0,-1118.76c-0,-48.763 -40.126,-88.889 -88.889,-88.889c-48.763,-0 -88.889,40.126 -88.889,88.889l-0,1118.76l-381.6,-381.6c-16.567,-16 -38.721,-24.952 -61.752,-24.952c-48.763,0 -88.889,40.126 -88.889,88.889c-0,23.032 8.951,45.186 24.952,61.752l533.333,533.334Z" style="fill:#7945c6;fill-rule:nonzero;"/></svg>