<?xml version="1.0" encoding="UTF-8" standalone="no"?><!DOCTYPE svg PUBLIC "-//W3C//DTD SVG 1.1//EN" "http://www.w3.org/Graphics/SVG/1.1/DTD/svg11.dtd"><svg width="100%" height="100%" viewBox="0 0 8892 8892" version="1.1" xmlns="http://www.w3.org/2000/svg" xmlns:xlink="http://www.w3.org/1999/xlink" xml:space="preserve" xmlns:serif="http://www.serif.com/" style="fill-rule:evenodd;clip-rule:evenodd;stroke-linejoin:round;stroke-miterlimit:2;"><path d="M8148.17,5925.92c-203.179,-0 -370.371,167.191 -370.371,370.371l-0,1481.48l-6666.67,-0l0,-1481.48c0,-203.179 -167.191,-370.37 -370.371,-370.37c-203.179,-0 -370.37,167.191 -370.37,370.371l-0,1851.85c-0,203.179 167.191,370.366 370.37,370.366l7407.42,0c203.179,0 370.367,-167.187 370.367,-370.366l-0,-1851.86c-0,-203.179 -167.188,-370.37 -370.367,-370.37l-0.008,-0Z" style="fill:#015bab;fill-rule:nonzero;"/><path d="M4182.58,6558.17c143.663,143.616 380.042,143.616 523.704,-0l2222.22,-2222.22c66.671,-69.025 103.971,-161.334 103.971,-257.3c0,-203.179 -167.191,-370.371 -370.371,-370.371c-95.966,-0 -188.275,37.3 -257.3,103.967l-1590,1590l0,-4661.5c0,-203.179 -167.191,-370.37 -370.37,-370.37c-203.18,-0 -370.371,167.191 -370.371,370.371l-0,4661.5l-1590,-1590c-69.029,-66.666 -161.338,-103.966 -257.3,-103.966c-203.179,-0 -370.371,167.191 -370.371,370.371c-0,95.966 37.296,188.275 103.967,257.3l2222.22,2222.22Z" style="fill:#015bab;fill-rule:nonzero;"/></svg>