<?xml version="1.0" encoding="UTF-8" standalone="no"?><!DOCTYPE svg PUBLIC "-//W3C//DTD SVG 1.1//EN" "http://www.w3.org/Graphics/SVG/1.1/DTD/svg11.dtd"><svg width="100%" height="100%" viewBox="0 0 2134 2134" version="1.1" xmlns="http://www.w3.org/2000/svg" xmlns:xlink="http://www.w3.org/1999/xlink" xml:space="preserve" xmlns:serif="http://www.serif.com/" style="fill-rule:evenodd;clip-rule:evenodd;stroke-linejoin:round;stroke-miterlimit:2;"><g><path d="M1891.23,492.458l-159.595,-159.587l-0,-238.046c-0,-52.288 -42.538,-94.825 -94.83,-94.825l-1310.22,-0c-51.634,-0 -93.642,42.008 -93.642,93.642l-0,1570.96c-0,51.634 42.008,93.642 93.642,93.642l52.966,-0l0,52.183c0,51.633 42.009,93.642 93.646,93.642l203.138,-0c17.258,-0 31.25,-13.988 31.25,-31.25c-0,-17.263 -13.992,-31.25 -31.25,-31.25l-203.138,-0c-17.175,-0 -31.146,-13.971 -31.146,-31.142l0,-1256.43c0,-17.263 -13.991,-31.25 -31.25,-31.25c-17.258,-0 -31.25,13.987 -31.25,31.25l0,1141.75l-52.966,-0c-17.171,-0 -31.142,-13.971 -31.142,-31.142l-0,-1570.96c-0,-17.171 13.971,-31.142 31.142,-31.142l1310.23,-0c17.825,-0 32.329,14.5 32.329,32.325l-0,175.55l-115.404,-115.396c-5.863,-5.858 -13.809,-9.15 -22.096,-9.15l-1058.44,0c-51.637,0 -93.646,42.008 -93.646,93.642l0,169.054c0,17.262 13.992,31.25 31.25,31.25c17.259,-0 31.25,-13.988 31.25,-31.25l0,-169.058c0,-17.171 13.971,-31.142 31.146,-31.142l1027.19,-0l-0,306.175c-0,17.258 13.987,31.246 31.245,31.25l306.255,0.05l-0,1264.62c-0,17.171 -13.971,31.142 -31.142,31.142l-200.708,-0c-17.259,-0 -31.25,13.987 -31.25,31.25c-0,17.262 13.991,31.25 31.25,31.25l200.708,-0c51.633,-0 93.642,-42.009 93.642,-93.642l-0,-1295.87c-0,-8.287 -3.292,-16.233 -9.155,-22.1Zm-328.345,-9.204l-0,-230.737l230.791,230.779l-230.791,-0.042Z" style="fill:#fff;fill-rule:nonzero;"/><path d="M1514.54,731.067l-747.592,-0c-17.258,-0 -31.25,13.987 -31.25,31.25c0,17.262 13.992,31.25 31.25,31.25l747.592,-0c17.258,-0 31.25,-13.988 31.25,-31.25c-0,-17.263 -13.992,-31.25 -31.25,-31.25Z" style="fill:#fff;fill-rule:nonzero;"/><path d="M1514.54,915.367l-747.592,-0c-17.258,-0 -31.25,13.987 -31.25,31.25c0,17.262 13.992,31.25 31.25,31.25l747.592,-0c17.258,-0 31.25,-13.988 31.25,-31.25c-0,-17.263 -13.992,-31.25 -31.25,-31.25Z" style="fill:#fff;fill-rule:nonzero;"/><path d="M1514.54,1103.34l-147.696,-0c-17.259,-0 -31.25,13.987 -31.25,31.25c-0,17.262 13.991,31.25 31.25,31.25l147.696,-0c17.258,-0 31.25,-13.988 31.25,-31.25c-0,-17.263 -13.992,-31.25 -31.25,-31.25Z" style="fill:#fff;fill-rule:nonzero;"/><path d="M1219.78,1165.84c17.258,-0 31.25,-13.988 31.25,-31.25c0,-17.263 -13.992,-31.25 -31.25,-31.25l-452.825,-0c-17.258,-0 -31.25,13.987 -31.25,31.25c-0,17.262 13.992,31.25 31.25,31.25l452.825,-0Z" style="fill:#fff;fill-rule:nonzero;"/><path d="M1255.3,1710.83l-83.308,-83.304l-0,302.108c-0,17.263 -13.992,31.25 -31.25,31.25c-17.258,0 -31.25,-13.987 -31.25,-31.25l-0,-302.108l-83.309,83.304c-12.204,12.2 -31.991,12.204 -44.191,-0.004c-12.204,-12.204 -12.204,-31.992 -0,-44.192l136.654,-136.65c6.1,-6.1 14.1,-9.15 22.096,-9.15c7.996,0 15.996,3.05 22.096,9.15l136.654,136.65c12.204,12.205 12.204,31.992 -0,44.192c-12.2,12.204 -31.988,12.2 -44.192,0.004Z" style="fill:#fff;fill-rule:nonzero;"/><path d="M1140.75,1348.38c-216.421,0 -392.496,176.067 -392.496,392.479c-0,216.409 176.075,392.475 392.496,392.475c216.421,0 392.496,-176.066 392.496,-392.475c-0,-216.412 -176.075,-392.479 -392.496,-392.479Zm-0,722.458c-181.959,0 -329.996,-148.025 -329.996,-329.975c-0,-181.95 148.037,-329.979 329.996,-329.979c181.958,0 329.996,148.029 329.996,329.979c-0,181.95 -148.038,329.975 -329.996,329.975Z" style="fill:#fff;fill-rule:nonzero;"/></g></svg>